# xmcd
#
# Track frame offsets:
#	150
#	8520
#	22220
#	34695
#	46555
#	58010
#	66897
#	75450
#	85920
#
# Disc length: 1329 seconds
#
# Revision: 1
# Processed by: cddbd v1.5.2PL0 Copyright (c) Steve Scherf et al.
# Submitted via: EZCDAudioConverter 6.0.7.1
#
DISCID=61052f09
DTITLE=Porter Wagoner - The Best Of Porter Wagoner
DYEAR=1992
DGENRE=Country
TTITLE0=Somewhere In The Night
TTITLE1=When Lea Jane Would Sing
TTITLE2=Hold On Tight
TTITLE3=Fool Like Me
TTITLE4=Angel Band
TTITLE5=Can You Tell Me
TTITLE6=I See Love
TTITLE7=Storm Of Love
TTITLE8=Nothing Between
EXTD=
EXTT0=
EXTT1=
EXTT2=
EXTT3=
EXTT4=
EXTT5=
EXTT6=
EXTT7=
EXTT8=
PLAYORDER=
